<svg width="11" height="18" viewBox="0 0 11 18" fill="none" xmlns="http://www.w3.org/2000/svg">
<path d="M5.04 17.16V0.239999H6.516V17.16H5.04ZM5.598 15.18C4.614 15.18 3.672 15.042 2.772 14.766C1.872 14.478 1.158 14.112 0.63 13.668L1.44 11.85C1.944 12.246 2.568 12.576 3.312 12.84C4.056 13.104 4.818 13.236 5.598 13.236C6.258 13.236 6.792 13.164 7.2 13.02C7.608 12.876 7.908 12.684 8.1 12.444C8.292 12.192 8.388 11.91 8.388 11.598C8.388 11.214 8.25 10.908 7.974 10.68C7.698 10.44 7.338 10.254 6.894 10.122C6.462 9.978 5.976 9.846 5.436 9.726C4.908 9.606 4.374 9.468 3.834 9.312C3.306 9.144 2.82 8.934 2.376 8.682C1.944 8.418 1.59 8.07 1.314 7.638C1.038 7.206 0.9 6.654 0.9 5.982C0.9 5.298 1.08 4.674 1.44 4.11C1.812 3.534 2.37 3.078 3.114 2.742C3.87 2.394 4.824 2.22 5.976 2.22C6.732 2.22 7.482 2.316 8.226 2.508C8.97 2.7 9.618 2.976 10.17 3.336L9.432 5.154C8.868 4.818 8.286 4.572 7.686 4.416C7.086 4.248 6.51 4.164 5.958 4.164C5.31 4.164 4.782 4.242 4.374 4.398C3.978 4.554 3.684 4.758 3.492 5.01C3.312 5.262 3.222 5.55 3.222 5.874C3.222 6.258 3.354 6.57 3.618 6.81C3.894 7.038 4.248 7.218 4.68 7.35C5.124 7.482 5.616 7.614 6.156 7.746C6.696 7.866 7.23 8.004 7.758 8.16C8.298 8.316 8.784 8.52 9.216 8.772C9.66 9.024 10.014 9.366 10.278 9.798C10.554 10.23 10.692 10.776 10.692 11.436C10.692 12.108 10.506 12.732 10.134 13.308C9.774 13.872 9.216 14.328 8.46 14.676C7.704 15.012 6.75 15.18 5.598 15.18Z" fill="#EE685F"/>
</svg>
