<svg width="333" height="50" viewBox="0 0 333 50" fill="none" xmlns="http://www.w3.org/2000/svg">
<rect width="333" height="50" rx="10" fill="#EE685F"/>
<path d="M128.238 31L123.342 19.8H125.598L129.966 29.928H128.67L133.086 19.8H135.166L130.286 31H128.238ZM136.234 31V22.456H138.234V31H136.234ZM137.242 21.048C136.869 21.048 136.559 20.9307 136.314 20.696C136.079 20.4613 135.962 20.1787 135.962 19.848C135.962 19.5067 136.079 19.224 136.314 19C136.559 18.7653 136.869 18.648 137.242 18.648C137.615 18.648 137.919 18.76 138.154 18.984C138.399 19.1973 138.522 19.4693 138.522 19.8C138.522 20.152 138.405 20.4507 138.17 20.696C137.935 20.9307 137.626 21.048 137.242 21.048ZM144.875 31.112C143.926 31.112 143.094 30.9253 142.379 30.552C141.675 30.168 141.126 29.6453 140.731 28.984C140.347 28.3227 140.155 27.5707 140.155 26.728C140.155 25.8747 140.342 25.1227 140.715 24.472C141.099 23.8107 141.622 23.2933 142.283 22.92C142.955 22.5467 143.718 22.36 144.571 22.36C145.403 22.36 146.144 22.5413 146.795 22.904C147.446 23.2667 147.958 23.7787 148.331 24.44C148.704 25.1013 148.891 25.88 148.891 26.776C148.891 26.8613 148.886 26.9573 148.875 27.064C148.875 27.1707 148.87 27.272 148.859 27.368H141.739V26.04H147.803L147.019 26.456C147.03 25.9653 146.928 25.5333 146.715 25.16C146.502 24.7867 146.208 24.4933 145.835 24.28C145.472 24.0667 145.051 23.96 144.571 23.96C144.08 23.96 143.648 24.0667 143.275 24.28C142.912 24.4933 142.624 24.792 142.411 25.176C142.208 25.5493 142.107 25.992 142.107 26.504V26.824C142.107 27.336 142.224 27.7893 142.459 28.184C142.694 28.5787 143.024 28.8827 143.451 29.096C143.878 29.3093 144.368 29.416 144.923 29.416C145.403 29.416 145.835 29.3413 146.219 29.192C146.603 29.0427 146.944 28.808 147.243 28.488L148.315 29.72C147.931 30.168 147.446 30.5147 146.859 30.76C146.283 30.9947 145.622 31.112 144.875 31.112ZM152.544 31L149.408 22.456H151.296L153.984 29.992H153.088L155.904 22.456H157.584L160.32 29.992H159.44L162.208 22.456H163.984L160.832 31H158.912L156.416 24.328H157.008L154.464 31H152.544ZM169.973 31V19.8H171.685L176.581 27.976H175.685L180.501 19.8H182.213L182.229 31H180.261L180.245 22.888H180.661L176.565 29.72H175.637L171.477 22.888H171.957V31H169.973ZM188.902 31.112C188.027 31.112 187.249 30.9253 186.566 30.552C185.883 30.168 185.345 29.6453 184.95 28.984C184.555 28.3227 184.358 27.5707 184.358 26.728C184.358 25.8747 184.555 25.1227 184.95 24.472C185.345 23.8107 185.883 23.2933 186.566 22.92C187.249 22.5467 188.027 22.36 188.902 22.36C189.787 22.36 190.571 22.5467 191.254 22.92C191.947 23.2933 192.486 23.8053 192.87 24.456C193.265 25.1067 193.462 25.864 193.462 26.728C193.462 27.5707 193.265 28.3227 192.87 28.984C192.486 29.6453 191.947 30.168 191.254 30.552C190.571 30.9253 189.787 31.112 188.902 31.112ZM188.902 29.4C189.393 29.4 189.83 29.2933 190.214 29.08C190.598 28.8667 190.897 28.5573 191.11 28.152C191.334 27.7467 191.446 27.272 191.446 26.728C191.446 26.1733 191.334 25.6987 191.11 25.304C190.897 24.8987 190.598 24.5893 190.214 24.376C189.83 24.1627 189.398 24.056 188.918 24.056C188.427 24.056 187.99 24.1627 187.606 24.376C187.233 24.5893 186.934 24.8987 186.71 25.304C186.486 25.6987 186.374 26.1733 186.374 26.728C186.374 27.272 186.486 27.7467 186.71 28.152C186.934 28.5573 187.233 28.8667 187.606 29.08C187.99 29.2933 188.422 29.4 188.902 29.4ZM195.375 31V22.456H197.279V24.808L197.055 24.12C197.311 23.544 197.711 23.1067 198.255 22.808C198.809 22.5093 199.497 22.36 200.319 22.36V24.264C200.233 24.2427 200.153 24.232 200.079 24.232C200.004 24.2213 199.929 24.216 199.855 24.216C199.097 24.216 198.495 24.44 198.047 24.888C197.599 25.3253 197.375 25.9813 197.375 26.856V31H195.375ZM205.953 31.112C205.004 31.112 204.172 30.9253 203.457 30.552C202.753 30.168 202.204 29.6453 201.809 28.984C201.425 28.3227 201.233 27.5707 201.233 26.728C201.233 25.8747 201.42 25.1227 201.793 24.472C202.177 23.8107 202.7 23.2933 203.361 22.92C204.033 22.5467 204.796 22.36 205.649 22.36C206.481 22.36 207.222 22.5413 207.873 22.904C208.524 23.2667 209.036 23.7787 209.409 24.44C209.782 25.1013 209.969 25.88 209.969 26.776C209.969 26.8613 209.964 26.9573 209.953 27.064C209.953 27.1707 209.948 27.272 209.937 27.368H202.817V26.04H208.881L208.097 26.456C208.108 25.9653 208.006 25.5333 207.793 25.16C207.58 24.7867 207.286 24.4933 206.913 24.28C206.55 24.0667 206.129 23.96 205.649 23.96C205.158 23.96 204.726 24.0667 204.353 24.28C203.99 24.4933 203.702 24.792 203.489 25.176C203.286 25.5493 203.185 25.992 203.185 26.504V26.824C203.185 27.336 203.302 27.7893 203.537 28.184C203.772 28.5787 204.102 28.8827 204.529 29.096C204.956 29.3093 205.446 29.416 206.001 29.416C206.481 29.416 206.913 29.3413 207.297 29.192C207.681 29.0427 208.022 28.808 208.321 28.488L209.393 29.72C209.009 30.168 208.524 30.5147 207.937 30.76C207.361 30.9947 206.7 31.112 205.953 31.112Z" fill="white"/>
</svg>
