<svg width="160" height="50" viewBox="0 0 160 50" fill="none" xmlns="http://www.w3.org/2000/svg">
<rect width="160" height="50" rx="10" fill="#EE685F"/>
<path d="M28.2494 31.16C27.3748 31.16 26.5374 31.0373 25.7374 30.792C24.9374 30.536 24.3028 30.2107 23.8334 29.816L24.5534 28.2C25.0014 28.552 25.5561 28.8453 26.2174 29.08C26.8788 29.3147 27.5561 29.432 28.2494 29.432C28.8361 29.432 29.3108 29.368 29.6734 29.24C30.0361 29.112 30.3028 28.9413 30.4734 28.728C30.6441 28.504 30.7294 28.2533 30.7294 27.976C30.7294 27.6347 30.6068 27.3627 30.3614 27.16C30.1161 26.9467 29.7961 26.7813 29.4014 26.664C29.0174 26.536 28.5854 26.4187 28.1054 26.312C27.6361 26.2053 27.1614 26.0827 26.6814 25.944C26.2121 25.7947 25.7801 25.608 25.3854 25.384C25.0014 25.1493 24.6868 24.84 24.4414 24.456C24.1961 24.072 24.0734 23.5813 24.0734 22.984C24.0734 22.376 24.2334 21.8213 24.5534 21.32C24.8841 20.808 25.3801 20.4027 26.0414 20.104C26.7134 19.7947 27.5614 19.64 28.5854 19.64C29.2574 19.64 29.9241 19.7253 30.5854 19.896C31.2468 20.0667 31.8228 20.312 32.3134 20.632L31.6574 22.248C31.1561 21.9493 30.6388 21.7307 30.1054 21.592C29.5721 21.4427 29.0601 21.368 28.5694 21.368C27.9934 21.368 27.5241 21.4373 27.1614 21.576C26.8094 21.7147 26.5481 21.896 26.3774 22.12C26.2174 22.344 26.1374 22.6 26.1374 22.888C26.1374 23.2293 26.2548 23.5067 26.4894 23.72C26.7348 23.9227 27.0494 24.0827 27.4334 24.2C27.8281 24.3173 28.2654 24.4347 28.7454 24.552C29.2254 24.6587 29.7001 24.7813 30.1694 24.92C30.6494 25.0587 31.0814 25.24 31.4654 25.464C31.8601 25.688 32.1748 25.992 32.4094 26.376C32.6548 26.76 32.7774 27.2453 32.7774 27.832C32.7774 28.4293 32.6121 28.984 32.2814 29.496C31.9614 29.9973 31.4654 30.4027 30.7934 30.712C30.1214 31.0107 29.2734 31.16 28.2494 31.16ZM39.4959 22.36C40.1786 22.36 40.7866 22.4933 41.3199 22.76C41.8639 23.0267 42.2906 23.4373 42.5999 23.992C42.9093 24.536 43.0639 25.24 43.0639 26.104V31H41.0639V26.36C41.0639 25.6027 40.8826 25.0373 40.5199 24.664C40.1679 24.2907 39.6719 24.104 39.0319 24.104C38.5626 24.104 38.1466 24.2 37.7839 24.392C37.4213 24.584 37.1386 24.872 36.9359 25.256C36.7439 25.6293 36.6479 26.104 36.6479 26.68V31H34.6479V19.128H36.6479V24.76L36.2159 24.056C36.5146 23.512 36.9466 23.096 37.5119 22.808C38.0879 22.5093 38.7493 22.36 39.4959 22.36ZM49.4567 31.112C48.582 31.112 47.8034 30.9253 47.1207 30.552C46.438 30.168 45.8994 29.6453 45.5047 28.984C45.11 28.3227 44.9127 27.5707 44.9127 26.728C44.9127 25.8747 45.11 25.1227 45.5047 24.472C45.8994 23.8107 46.438 23.2933 47.1207 22.92C47.8034 22.5467 48.582 22.36 49.4567 22.36C50.342 22.36 51.126 22.5467 51.8087 22.92C52.502 23.2933 53.0407 23.8053 53.4247 24.456C53.8194 25.1067 54.0167 25.864 54.0167 26.728C54.0167 27.5707 53.8194 28.3227 53.4247 28.984C53.0407 29.6453 52.502 30.168 51.8087 30.552C51.126 30.9253 50.342 31.112 49.4567 31.112ZM49.4567 29.4C49.9474 29.4 50.3847 29.2933 50.7687 29.08C51.1527 28.8667 51.4514 28.5573 51.6647 28.152C51.8887 27.7467 52.0007 27.272 52.0007 26.728C52.0007 26.1733 51.8887 25.6987 51.6647 25.304C51.4514 24.8987 51.1527 24.5893 50.7687 24.376C50.3847 24.1627 49.9527 24.056 49.4727 24.056C48.982 24.056 48.5447 24.1627 48.1607 24.376C47.7874 24.5893 47.4887 24.8987 47.2647 25.304C47.0407 25.6987 46.9287 26.1733 46.9287 26.728C46.9287 27.272 47.0407 27.7467 47.2647 28.152C47.4887 28.5573 47.7874 28.8667 48.1607 29.08C48.5447 29.2933 48.9767 29.4 49.4567 29.4ZM57.5828 31L54.4468 22.456H56.3348L59.0228 29.992H58.1268L60.9428 22.456H62.6228L65.3588 29.992H64.4788L67.2468 22.456H69.0228L65.8708 31H63.9508L61.4548 24.328H62.0468L59.5028 31H57.5828ZM78.6598 31.112C77.7851 31.112 77.0065 30.9253 76.3238 30.552C75.6411 30.168 75.1025 29.6453 74.7078 28.984C74.3131 28.3227 74.1158 27.5707 74.1158 26.728C74.1158 25.8747 74.3131 25.1227 74.7078 24.472C75.1025 23.8107 75.6411 23.2933 76.3238 22.92C77.0065 22.5467 77.7851 22.36 78.6598 22.36C79.5451 22.36 80.3291 22.5467 81.0118 22.92C81.7051 23.2933 82.2438 23.8053 82.6278 24.456C83.0225 25.1067 83.2198 25.864 83.2198 26.728C83.2198 27.5707 83.0225 28.3227 82.6278 28.984C82.2438 29.6453 81.7051 30.168 81.0118 30.552C80.3291 30.9253 79.5451 31.112 78.6598 31.112ZM78.6598 29.4C79.1505 29.4 79.5878 29.2933 79.9718 29.08C80.3558 28.8667 80.6545 28.5573 80.8678 28.152C81.0918 27.7467 81.2038 27.272 81.2038 26.728C81.2038 26.1733 81.0918 25.6987 80.8678 25.304C80.6545 24.8987 80.3558 24.5893 79.9718 24.376C79.5878 24.1627 79.1558 24.056 78.6758 24.056C78.1851 24.056 77.7478 24.1627 77.3638 24.376C76.9905 24.5893 76.6918 24.8987 76.4678 25.304C76.2438 25.6987 76.1318 26.1733 76.1318 26.728C76.1318 27.272 76.2438 27.7467 76.4678 28.152C76.6918 28.5573 76.9905 28.8667 77.3638 29.08C77.7478 29.2933 78.1798 29.4 78.6598 29.4ZM89.9803 22.36C90.663 22.36 91.271 22.4933 91.8043 22.76C92.3483 23.0267 92.775 23.4373 93.0843 23.992C93.3936 24.536 93.5483 25.24 93.5483 26.104V31H91.5483V26.36C91.5483 25.6027 91.367 25.0373 91.0043 24.664C90.6523 24.2907 90.1563 24.104 89.5163 24.104C89.047 24.104 88.631 24.2 88.2683 24.392C87.9056 24.584 87.623 24.872 87.4203 25.256C87.2283 25.6293 87.1323 26.104 87.1323 26.68V31H85.1323V22.456H87.0363V24.76L86.7003 24.056C86.999 23.512 87.431 23.096 87.9963 22.808C88.5723 22.5093 89.2336 22.36 89.9803 22.36ZM111.291 22.36C111.974 22.36 112.577 22.4933 113.099 22.76C113.633 23.0267 114.049 23.4373 114.347 23.992C114.646 24.536 114.795 25.24 114.795 26.104V31H112.795V26.36C112.795 25.6027 112.63 25.0373 112.299 24.664C111.969 24.2907 111.494 24.104 110.875 24.104C110.438 24.104 110.049 24.2 109.707 24.392C109.377 24.584 109.115 24.8667 108.923 25.24C108.742 25.6133 108.651 26.088 108.651 26.664V31H106.651V26.36C106.651 25.6027 106.486 25.0373 106.155 24.664C105.825 24.2907 105.35 24.104 104.731 24.104C104.294 24.104 103.905 24.2 103.563 24.392C103.233 24.584 102.971 24.8667 102.779 25.24C102.598 25.6133 102.507 26.088 102.507 26.664V31H100.507V22.456H102.411V24.728L102.075 24.056C102.363 23.5013 102.779 23.08 103.323 22.792C103.878 22.504 104.507 22.36 105.211 22.36C106.011 22.36 106.705 22.5573 107.291 22.952C107.889 23.3467 108.283 23.944 108.475 24.744L107.691 24.472C107.969 23.832 108.427 23.32 109.067 22.936C109.707 22.552 110.449 22.36 111.291 22.36ZM122.615 31V29.272L122.503 28.904V25.88C122.503 25.2933 122.327 24.84 121.975 24.52C121.623 24.1893 121.09 24.024 120.375 24.024C119.895 24.024 119.42 24.0987 118.951 24.248C118.492 24.3973 118.103 24.6053 117.783 24.872L116.999 23.416C117.458 23.064 118.002 22.8027 118.631 22.632C119.271 22.4507 119.932 22.36 120.615 22.36C121.852 22.36 122.807 22.6587 123.479 23.256C124.162 23.8427 124.503 24.7547 124.503 25.992V31H122.615ZM119.927 31.112C119.287 31.112 118.727 31.0053 118.247 30.792C117.767 30.568 117.394 30.264 117.127 29.88C116.871 29.4853 116.743 29.0427 116.743 28.552C116.743 28.072 116.855 27.64 117.079 27.256C117.314 26.872 117.692 26.568 118.215 26.344C118.738 26.12 119.431 26.008 120.295 26.008H122.775V27.336H120.439C119.756 27.336 119.298 27.448 119.063 27.672C118.828 27.8853 118.711 28.152 118.711 28.472C118.711 28.8347 118.855 29.1227 119.143 29.336C119.431 29.5493 119.831 29.656 120.343 29.656C120.834 29.656 121.271 29.544 121.655 29.32C122.05 29.096 122.332 28.7653 122.503 28.328L122.839 29.528C122.647 30.0293 122.3 30.4187 121.799 30.696C121.308 30.9733 120.684 31.112 119.927 31.112ZM131.806 31.112C131.112 31.112 130.478 30.952 129.902 30.632C129.336 30.312 128.883 29.832 128.542 29.192C128.211 28.5413 128.046 27.72 128.046 26.728C128.046 25.7253 128.206 24.904 128.526 24.264C128.856 23.624 129.304 23.1493 129.87 22.84C130.435 22.52 131.08 22.36 131.806 22.36C132.648 22.36 133.39 22.5413 134.03 22.904C134.68 23.2667 135.192 23.7733 135.566 24.424C135.95 25.0747 136.142 25.8427 136.142 26.728C136.142 27.6133 135.95 28.3867 135.566 29.048C135.192 29.6987 134.68 30.2053 134.03 30.568C133.39 30.9307 132.648 31.112 131.806 31.112ZM127.07 34.104V22.456H128.974V24.472L128.91 26.744L129.07 29.016V34.104H127.07ZM131.582 29.4C132.062 29.4 132.488 29.2933 132.862 29.08C133.246 28.8667 133.55 28.5573 133.774 28.152C133.998 27.7467 134.11 27.272 134.11 26.728C134.11 26.1733 133.998 25.6987 133.774 25.304C133.55 24.8987 133.246 24.5893 132.862 24.376C132.488 24.1627 132.062 24.056 131.582 24.056C131.102 24.056 130.67 24.1627 130.286 24.376C129.902 24.5893 129.598 24.8987 129.374 25.304C129.15 25.6987 129.038 26.1733 129.038 26.728C129.038 27.272 129.15 27.7467 129.374 28.152C129.598 28.5573 129.902 28.8667 130.286 29.08C130.67 29.2933 131.102 29.4 131.582 29.4Z" fill="white"/>
</svg>
